<svg xmlns="http://www.w3.org/2000/svg" width="888" height="200" viewBox="0 0 888 200">
  <path fill="none" d="M311.721 154.013H642.28v33.703H311.721z"/>
  <path fill="#88C0D0" d="M281.138 141.045h1.38l22.451 31.697h.092v-31.697h.92v32.848h-1.38l-22.45-31.697h-.092v31.697h-.92v-32.848zm39.284 8.648c6.901 0 10.627 5.936 10.627 12.375 0 6.486-3.726 12.375-10.673 12.375-6.901 0-10.627-5.889-10.627-12.375 0-6.439 3.727-12.375 10.673-12.375zm0 23.83c6.303 0 9.707-5.475 9.707-11.455 0-5.889-3.404-11.455-9.707-11.455-6.395 0-9.753 5.566-9.753 11.455 0 5.981 3.358 11.455 9.753 11.455zm15.363.37h-.92v-23.646h.92v5.842h.092c.874-3.496 3.634-6.578 9.293-6.395v.92c-6.487-.322-9.385 4.738-9.385 9.891v13.388zm29.396-32.848h.92v32.848h-.92v-6.625h-.092c-1.196 4.141-4.646 7.176-9.477 7.176-6.257 0-10.075-5.197-10.075-12.328 0-6.625 3.542-12.422 10.075-12.422 5.015 0 8.373 2.898 9.477 7.178h.092v-15.827zm-9.569 9.568c-6.487 0-9.155 6.027-9.155 11.502 0 6.072 3.037 11.408 9.155 11.408 6.073 0 9.569-5.289 9.569-11.408 0-7.314-3.819-11.502-9.569-11.502z"/>
  <path fill="#2E3440" d="M385.004 141.045h3.496l19.138 27.787h.092v-27.787h3.128v32.848h-3.496l-19.138-27.787h-.092v27.787h-3.128v-32.848zm53.132 20.978c0 6.809-3.956 12.559-11.225 12.559-7.27 0-11.226-5.75-11.226-12.559s3.956-12.561 11.226-12.561c7.269.001 11.225 5.753 11.225 12.561zm-19.552 0c0 5.061 2.761 10.121 8.327 10.121 5.567 0 8.327-5.061 8.327-10.121s-2.76-10.121-8.327-10.121c-5.566 0-8.327 5.061-8.327 10.121zm28.475-11.869h4.832v2.438h-4.832v16.01c0 1.887.277 2.99 2.348 3.129.828 0 1.656-.047 2.484-.139v2.484c-.875 0-1.703.092-2.576.092-3.865 0-5.2-1.287-5.154-5.336v-16.24h-4.14v-2.438h4.14v-7.131h2.898v7.131zm10.718 12.651c.045 4.232 2.254 9.34 7.82 9.34 4.232 0 6.533-2.484 7.453-6.074h2.898c-1.242 5.383-4.371 8.512-10.352 8.512-7.545 0-10.719-5.797-10.719-12.559 0-6.258 3.174-12.561 10.719-12.561 7.637 0 10.674 6.672 10.443 13.342h-18.262zm15.366-2.438c-.139-4.371-2.852-8.465-7.545-8.465-4.738 0-7.361 4.141-7.82 8.465h15.365zm6.806-10.213h2.668v4.508h.092c1.334-3.221 4.646-5.199 8.465-5.199 7.223 0 10.674 5.844 10.674 12.561s-3.451 12.559-10.674 12.559c-3.543 0-6.992-1.795-8.234-5.199h-.094v13.297h-2.896v-32.527zm11.225 1.748c-6.395 0-8.328 4.738-8.328 10.121 0 4.922 2.164 10.121 8.328 10.121 5.52 0 7.775-5.199 7.775-10.121 0-4.923-2.256-10.121-7.775-10.121zm14.902 5.52c.275-5.566 4.186-7.959 9.615-7.959 4.186 0 8.74 1.289 8.74 7.637v12.605c0 1.105.553 1.748 1.703 1.748.32 0 .689-.092.92-.184v2.439c-.645.137-1.105.184-1.887.184-2.945 0-3.404-1.656-3.404-4.141h-.092c-2.025 3.082-4.096 4.83-8.65 4.83-4.369 0-7.957-2.162-7.957-6.947 0-6.67 6.486-6.9 12.742-7.637 2.393-.275 3.727-.598 3.727-3.221 0-3.91-2.807-4.875-6.211-4.875-3.588 0-6.256 1.656-6.348 5.52h-2.898zm15.457 3.496h-.092c-.367.691-1.656.92-2.438 1.059-4.924.875-11.043.828-11.043 5.475 0 2.898 2.578 4.693 5.291 4.693 4.416 0 8.328-2.807 8.281-7.453v-3.774zm29.578 12.975h-2.668v-4.51h-.092c-1.242 3.084-5.014 5.199-8.465 5.199-7.223 0-10.674-5.842-10.674-12.559s3.451-12.561 10.674-12.561c3.543 0 6.992 1.795 8.234 5.199h.092v-13.617h2.898v32.849zm-11.224-1.748c6.164 0 8.326-5.199 8.326-10.121 0-4.924-2.162-10.121-8.326-10.121-5.521 0-7.775 5.197-7.775 10.121-.001 4.921 2.253 10.121 7.775 10.121zm26.588-21.393h2.438v10.352h10.352v2.438h-10.352v10.352h-2.438v-10.352h-10.352v-2.438h10.352v-10.352zm27.599 0h2.438v10.352h10.352v2.438h-10.352v10.352h-2.438v-10.352h-10.352v-2.438h10.352v-10.352z"/>
  <g fill="#2E3440">
    <path d="M466.561 123.049l-43.393-55.546v-15.41l48.092 62.171h25.844V26.718h-43.465l-9.396-9.398H506.5v105.729z"/>
    <path d="M421.44 17.32l43.394 55.541v15.41l-48.092-62.168h-25.843v87.545h43.463l9.4 9.401H381.5V17.32z"/>
  </g>
</svg>
